<svg width="134" height="57" viewBox="0 0 134 57" fill="none" xmlns="http://www.w3.org/2000/svg">
<g filter="url(#filter0_d_321_1188)">
<path d="M33.8471 26.9573C39.66 20.0009 45.3992 13.1295 51.1401 6.25976C51.9941 5.23724 52.8809 4.23925 53.6891 3.18073C53.941 2.85352 54.2044 2.23837 54.0605 1.98315C53.8789 1.66084 53.2866 1.41217 52.8678 1.40399C50.1978 1.35327 47.5261 1.40399 44.8544 1.36636C43.7796 1.35163 42.9583 1.7541 42.294 2.55085C38.0943 7.58659 33.9011 12.6272 29.6998 17.6613C27.5206 20.2725 25.3397 22.8852 23.1409 25.4784C22.0316 26.7872 22.0415 26.8608 23.1507 28.1958C26.5929 32.3399 30.009 36.5069 33.4398 40.6608C36.4206 44.27 39.4081 47.8725 42.3889 51.4816C43.0924 52.334 43.9775 52.7479 45.09 52.7414C47.6243 52.725 50.1601 52.7365 52.6944 52.7365C52.8302 52.7365 52.9872 52.7741 53.0985 52.7201C53.4208 52.5647 53.8739 52.4371 53.9917 52.172C54.1063 51.9152 53.9705 51.4211 53.7709 51.1692C52.6911 49.8047 51.5491 48.4877 50.4415 47.1429C46.5003 42.3525 42.5673 37.5573 38.6293 32.7653C37.0423 30.8331 35.4488 28.9059 33.8439 26.9573H33.8471Z" fill="#0B7F72"/>
<path d="M7.0896 52.6464C8.55713 52.6464 10.0427 52.7789 11.4856 52.5908C12.2055 52.4975 13.0137 51.9576 13.5013 51.3834C17.3149 46.8777 21.0663 42.3164 24.8243 37.765C25.5998 36.8259 25.5556 36.4512 24.7605 35.499C23.4697 33.9546 22.205 32.3889 20.9109 30.8478C20.1469 29.9381 19.5644 29.943 18.7824 30.8723C16.8911 33.1202 15.0179 35.3845 13.1364 37.6406C9.65165 41.8191 6.16524 45.9975 2.68047 50.1776C2.4367 50.4705 2.18147 50.7568 1.96224 51.0676C1.48779 51.74 1.65794 52.3617 2.45469 52.5695C3.04694 52.7233 3.68826 52.7168 4.30833 52.7331C5.23433 52.7577 6.16197 52.7397 7.08797 52.7397C7.08797 52.7102 7.08797 52.6791 7.08797 52.6497L7.0896 52.6464Z" fill="#0B7F72"/>
<path d="M7.24664 1.37758C5.88381 1.37758 4.51772 1.3334 3.15817 1.40539C2.7328 1.42829 2.10456 1.66879 1.97204 1.98128C1.83788 2.29867 2.08983 2.91709 2.35978 3.25085C4.93491 6.41659 7.54767 9.55288 10.1555 12.6925C12.9712 16.0856 15.7901 19.4755 18.6106 22.8654C19.4548 23.8814 20.0552 23.9092 20.9223 22.9095C22.187 21.4486 23.4304 19.9679 24.6574 18.4742C25.4885 17.4615 25.4803 16.8464 24.6247 15.8058C22.205 12.8626 19.764 9.93736 17.3378 7.00066C16.1942 5.61656 15.044 4.23574 13.9315 2.82711C13.1544 1.84548 12.2349 1.28759 10.9277 1.36122C9.70561 1.42993 8.47531 1.37594 7.24828 1.37594L7.24664 1.37758Z" fill="#0B7F72"/>
<path d="M115.05 46.2854C112.141 48.4237 105.826 48.44 103.309 46.2379C99.7462 48.494 95.769 47.6809 91.8899 47.6842C90.8576 51.5502 87.8636 52.9359 84.4165 53.7081C82.6054 54.1138 80.7665 54.2316 78.8866 53.8635V49.8928C81.8381 50.1137 84.6831 50.0744 87.0374 47.7594C85.3065 47.5582 83.6819 47.46 82.0966 47.1639C79.3022 46.642 77.743 44.6313 77.6923 41.7601C77.6629 40.0848 77.7512 38.4307 78.6854 36.9796C80.3002 34.4682 82.7575 33.7026 85.5797 33.8465C87.0178 33.9202 88.4362 34.1934 89.6583 35.0294C91.44 36.2466 91.9701 38.097 92.0862 40.1077C92.15 41.1907 92.0977 42.2803 92.0977 43.4714C93.9464 43.4714 95.733 43.4861 97.5179 43.4616C98.0545 43.455 98.6059 43.3978 99.1229 43.262C100.397 42.9249 100.924 42.2263 100.931 40.9273C100.942 38.9117 100.934 36.8961 100.934 34.8167H105.842C105.842 36.2417 105.842 37.6765 105.842 39.1097C105.842 39.8181 105.829 40.5281 105.845 41.2365C105.87 42.3131 106.321 42.9822 107.331 43.3176C108.574 43.7315 109.844 43.7462 111.084 43.3127C112.27 42.8971 112.707 42.2329 112.71 40.9813C112.715 38.9919 112.717 37.0008 112.722 35.0114C112.722 34.9607 112.748 34.91 112.776 34.8069H117.458C117.458 36.5018 117.499 38.1837 117.448 39.8623C117.371 42.4668 118.139 43.2456 120.429 43.4877C121.944 43.6481 123.467 43.7495 124.946 43.2571C126.106 42.8709 126.613 42.1773 126.641 40.9633C126.664 39.9277 126.651 38.8921 126.651 37.8565C126.651 36.8536 126.651 35.8507 126.651 34.8003H131.685C131.685 36.4609 131.713 38.115 131.675 39.7657C131.651 40.8766 131.667 42.0137 131.431 43.0869C130.882 45.5851 129.28 47.0887 126.734 47.5206C123.624 48.049 120.512 48.049 117.433 47.3406C116.642 47.159 115.918 46.6829 115.045 46.2886L115.05 46.2854ZM87.6738 43.4779C87.6738 42.5437 87.7311 41.7535 87.6624 40.9748C87.4857 38.987 86.4582 38.1019 84.5097 38.1804C83.3367 38.2279 82.3812 39.1195 82.2831 40.2566C82.1522 41.783 82.7412 42.8317 84.0058 43.064C85.174 43.2783 86.3699 43.3372 87.6738 43.4763V43.4779Z" fill="#0E3862"/>
<path d="M54.7944 38.9102C56.2946 39.1213 57.6542 39.3127 58.9009 39.4877C58.7733 40.9618 58.5458 42.3574 58.5557 43.7513C58.5769 46.5669 59.8841 48.2242 62.618 49.0062C64.5207 49.551 66.4479 49.7523 68.3605 48.9948C69.2161 48.6561 69.9294 48.1637 70.3074 47.3555C69.0051 47.3555 67.6864 47.4847 66.4021 47.3277C64.0184 47.0348 62.4134 45.3939 61.9963 42.9856C61.5905 40.6461 61.6952 38.3801 63.2871 36.4316C64.3276 35.1588 65.7035 34.4127 67.3101 34.1886C69.3928 33.8974 71.4395 33.9939 73.2113 35.3469C74.5562 36.3743 75.3627 37.7503 75.3889 39.4354C75.4265 41.9336 75.4887 44.4499 75.2368 46.9285C74.8883 50.3609 72.7565 52.4256 69.4713 53.2501C66.2745 54.0534 63.0711 53.9749 59.9398 52.8853C55.9085 51.4832 53.3792 46.8859 54.0876 42.6322C54.2872 41.4363 54.5375 40.2501 54.7928 38.9135L54.7944 38.9102ZM71.0027 43.4551C71.0027 42.3574 71.0452 41.4363 70.9912 40.5184C70.9307 39.4599 70.3581 38.8251 69.3568 38.5601C68.0643 38.2182 66.7539 38.8791 66.4676 40.1062C66.1878 41.3103 66.3072 43.0265 68.0676 43.285C68.9953 43.4208 69.9458 43.3995 71.001 43.4551H71.0027Z" fill="#0E3862"/>
<path d="M126.78 8.75978C126.736 8.25588 126.71 7.96139 126.679 7.626H131.629V31.5744H126.646V24.1042C125.074 25.1464 123.448 25.5734 121.674 25.5947C117.555 25.6421 114.657 22.4535 113.896 19.3761C113.067 16.0205 113.46 12.8253 115.606 9.95409C117.399 7.55565 119.861 6.81452 122.685 6.99776C124.156 7.09429 125.555 7.52129 126.78 8.75978ZM126.62 16.4034C126.631 16.4034 126.641 16.4034 126.653 16.4034C126.653 15.4496 126.62 14.4941 126.664 13.5436C126.695 12.9071 126.46 12.4671 125.987 12.0711C124.575 10.885 122.183 10.7885 120.701 11.9664C118.737 13.5256 118.343 15.6786 118.988 17.9167C119.982 21.3671 123.263 22.4813 126.139 20.3691C126.392 20.1826 126.579 19.7556 126.599 19.4284C126.658 18.4239 126.62 17.4128 126.62 16.405V16.4034Z" fill="#0E3862"/>
<path d="M69.841 7.19231C67.6373 5.95219 65.4188 5.31904 63.0384 5.48591C62.2809 5.53827 61.4808 5.75913 60.8084 6.10925C59.3769 6.85365 59.2444 8.86762 60.6137 9.73145C61.5512 10.3221 62.6735 10.6296 63.7271 11.0256C64.9623 11.4902 66.2466 11.8403 67.4524 12.3704C71.8305 14.2944 72.1446 18.5432 70.3482 21.8218C68.9919 24.2988 66.6851 25.3589 63.9758 25.5716C60.9524 25.8088 58.0501 25.1806 55.2213 24.1401C54.7583 23.9699 54.6062 23.7556 54.6144 23.273C54.6438 21.7547 54.6258 20.2365 54.6258 18.8508C56.288 19.4348 57.9061 20.0991 59.5781 20.5637C61.1569 21.0038 62.7946 21.0398 64.3914 20.5195C65.4548 20.1727 65.9603 19.5592 66.016 18.6217C66.0716 17.6695 65.6855 16.9889 64.5893 16.5897C62.6179 15.8715 60.5974 15.2842 58.6145 14.5954C56.4516 13.8428 54.8189 12.534 54.3035 10.165C53.497 6.45609 55.2606 3.184 58.8812 1.73774C62.4674 0.304565 65.9881 0.70376 69.4386 2.23837C69.6218 2.32017 69.8148 2.62447 69.8181 2.82898C69.8508 4.24252 69.8361 5.6577 69.8361 7.19394L69.841 7.19231Z" fill="#0E3862"/>
<path d="M72.9398 16.2135C72.7795 13.9574 73.7185 11.6407 75.4331 9.69057C76.135 8.89054 77.146 8.25085 78.1424 7.84347C80.405 6.91911 82.8117 6.83894 85.1856 7.32321C88.2564 7.95145 90.272 9.89671 91.2749 12.817C92.4005 16.0957 92.1862 19.2778 90.1002 22.1621C88.8585 23.88 87.1194 24.8845 85.0498 25.3213C82.4223 25.8759 79.8275 25.714 77.4389 24.4951C74.2797 22.882 72.8858 20.14 72.9414 16.2135H72.9398ZM86.9312 16.4163C86.8494 15.8274 86.8298 15.222 86.6727 14.6543C86.1836 12.8776 85.0203 11.7569 83.1994 11.4199C81.6304 11.1286 80.1907 11.4509 79.1731 12.7647C77.9837 14.3026 77.7988 16.081 78.1915 17.9411C78.7805 20.7322 80.9875 21.8333 83.5724 21.2149C85.7778 20.688 86.8609 18.9817 86.9296 16.4163H86.9312Z" fill="#0E3862"/>
<path d="M106.019 25.1807V23.1389C105.466 23.5855 105.013 23.9896 104.522 24.3397C100.825 26.9705 95.2358 25.3164 94.1642 20.6259C94.1102 20.3903 94.066 20.1449 94.066 19.9028C94.0595 15.9779 94.0611 12.0547 94.0627 8.12981C94.0627 7.97274 94.0791 7.81568 94.0906 7.62427H99.1279C99.1279 7.91712 99.1279 8.20506 99.1279 8.49301C99.1279 11.6817 99.1656 14.8703 99.1132 18.059C99.0821 20.0386 100.69 21.6893 103.169 21.0987C104.993 20.6635 106.004 19.2516 106.007 17.3571C106.012 14.1439 106.007 10.9307 106.007 7.65208H111.099V25.1823H106.019V25.1807Z" fill="#0E3862"/>
<path d="M64.825 29.1921C67.5473 29.1921 70.183 29.1921 72.8203 29.1921C72.925 29.1921 73.0297 29.215 73.1835 29.2346V32.9075H64.825V29.1904V29.1921Z" fill="#0E3862"/>
</g>
<defs>
<filter id="filter0_d_321_1188" x="-3.37362e-05" y="-0.00184792" width="133.399" height="56.6361" filterUnits="userSpaceOnUse" color-interpolation-filters="sRGB">
<feFlood flood-opacity="0" result="BackgroundImageFix"/>
<feColorMatrix in="SourceAlpha" type="matrix" values="0 0 0 0 0 0 0 0 0 0 0 0 0 0 0 0 0 0 127 0" result="hardAlpha"/>
<feOffset dy="0.849748"/>
<feGaussianBlur stdDeviation="0.849748"/>
<feComposite in2="hardAlpha" operator="out"/>
<feColorMatrix type="matrix" values="0 0 0 0 0.0431373 0 0 0 0 0.498039 0 0 0 0 0.447059 0 0 0 0.24 0"/>
<feBlend mode="normal" in2="BackgroundImageFix" result="effect1_dropShadow_321_1188"/>
<feBlend mode="normal" in="SourceGraphic" in2="effect1_dropShadow_321_1188" result="shape"/>
</filter>
</defs>
</svg>
