<svg width="212" height="134" viewBox="0 0 212 134" fill="none" xmlns="http://www.w3.org/2000/svg">
<path d="M184.56 73.9831C179.824 77.4648 169.541 77.4914 165.444 73.9059C159.642 77.5793 153.166 76.2554 146.85 76.2607C145.17 82.5554 140.295 84.8117 134.682 86.069C131.733 86.7297 128.739 86.9215 125.678 86.3221V79.8569C130.484 80.2165 135.116 80.1526 138.949 76.3833C136.131 76.0556 133.486 75.8958 130.905 75.4136C126.355 74.5638 123.816 71.29 123.734 66.6149C123.686 63.8871 123.829 61.1939 125.35 58.8311C127.98 54.7421 131.981 53.4954 136.576 53.7298C138.918 53.8497 141.227 54.2946 143.217 55.6558C146.118 57.6377 146.981 60.6505 147.17 63.9244C147.274 65.6879 147.189 67.462 147.189 69.4013C150.199 69.4013 153.108 69.4253 156.014 69.3853C156.888 69.3747 157.786 69.2814 158.627 69.0603C160.703 68.5116 161.56 67.3741 161.571 65.259C161.59 61.9771 161.576 58.6953 161.576 55.3095H169.568C169.568 57.6297 169.568 59.9659 169.568 62.2994C169.568 63.4529 169.547 64.609 169.573 65.7625C169.613 67.5153 170.348 68.6048 171.992 69.1509C174.016 69.8248 176.084 69.8488 178.103 69.1429C180.034 68.4663 180.745 67.3847 180.751 65.3469C180.759 62.1077 180.761 58.8657 180.769 55.6265C180.769 55.5439 180.812 55.4613 180.857 55.2935H188.481C188.481 58.0533 188.548 60.7917 188.465 63.5248C188.34 67.7657 189.589 69.0337 193.319 69.4279C195.786 69.689 198.266 69.8541 200.674 69.0523C202.562 68.4237 203.388 67.2942 203.433 65.3176C203.471 63.6314 203.449 61.9452 203.449 60.2589C203.449 58.626 203.449 56.993 203.449 55.2829H211.646C211.646 57.9867 211.691 60.6798 211.63 63.3677C211.59 65.1764 211.617 67.0278 211.233 68.7753C210.338 72.843 207.73 75.2911 203.585 75.9943C198.521 76.8548 193.455 76.8548 188.441 75.7013C187.152 75.4056 185.975 74.6304 184.552 73.9884L184.56 73.9831ZM139.986 69.4119C139.986 67.8909 140.079 66.6042 139.967 65.3362C139.679 62.0997 138.006 60.6585 134.834 60.7864C132.924 60.8636 131.368 62.3154 131.208 64.1668C130.995 66.6522 131.954 68.3597 134.013 68.738C135.915 69.087 137.863 69.1829 139.986 69.4093V69.4119Z" fill="white"/>
<path d="M86.4501 61.9746C88.8929 62.3182 91.1066 62.6299 93.1364 62.9149C92.9286 65.3151 92.5584 67.5873 92.5743 69.8569C92.609 74.4414 94.7374 77.1399 99.1887 78.4132C102.287 79.3003 105.425 79.628 108.539 78.3946C109.932 77.8432 111.093 77.0414 111.709 75.7254C109.588 75.7254 107.441 75.9359 105.35 75.6801C101.469 75.2033 98.8557 72.5314 98.1764 68.6103C97.5158 64.8009 97.6863 61.1115 100.278 57.9388C101.972 55.8664 104.213 54.6516 106.829 54.2867C110.22 53.8125 113.552 53.9697 116.437 56.1727C118.627 57.8456 119.94 60.0859 119.983 62.8297C120.044 66.8974 120.145 70.9944 119.735 75.0301C119.168 80.6189 115.697 83.9807 110.348 85.3233C105.142 86.6312 99.9266 86.5034 94.828 84.7292C88.2642 82.4463 84.1459 74.9609 85.2994 68.0349C85.6243 66.0876 86.0319 64.1563 86.4475 61.9799L86.4501 61.9746ZM112.841 69.3748C112.841 67.5873 112.91 66.0876 112.822 64.5932C112.724 62.8696 111.791 61.8361 110.161 61.4045C108.057 60.8478 105.923 61.924 105.457 63.9219C105.001 65.8825 105.196 68.6769 108.062 69.0977C109.572 69.3188 111.12 69.2842 112.838 69.3748H112.841Z" fill="white"/>
<path d="M203.66 12.8824C203.588 12.062 203.545 11.5825 203.495 11.0364H211.555V50.0299H203.441V37.8668C200.881 39.5636 198.234 40.2589 195.346 40.2935C188.638 40.3708 183.921 35.1789 182.682 30.1682C181.331 24.7046 181.971 19.5021 185.466 14.8271C188.385 10.9218 192.394 9.71512 196.992 10.0135C199.387 10.1706 201.665 10.8659 203.66 12.8824ZM203.399 25.328C203.417 25.328 203.433 25.328 203.452 25.328C203.452 23.775 203.399 22.2193 203.471 20.6716C203.521 19.6353 203.138 18.9187 202.368 18.2741C200.069 16.3428 196.174 16.1856 193.761 18.1036C190.564 20.6423 189.922 24.1479 190.972 27.792C192.592 33.4101 197.933 35.2242 202.616 31.7852C203.028 31.4815 203.332 30.7862 203.364 30.2535C203.46 28.6178 203.399 26.9716 203.399 25.3306V25.328Z" fill="white"/>
<path d="M110.95 10.3304C107.361 8.31119 103.749 7.28028 99.8733 7.55199C98.64 7.63724 97.3374 7.99686 96.2425 8.56692C93.9116 9.77898 93.6959 13.0582 95.9255 14.4647C97.4519 15.4264 99.2793 15.9272 100.995 16.5718C103.006 17.3283 105.097 17.8984 107.06 18.7615C114.189 21.8942 114.7 28.8122 111.775 34.1506C109.567 38.1837 105.811 39.9099 101.4 40.2562C96.4769 40.6424 91.7512 39.6195 87.1454 37.9253C86.3916 37.6482 86.1438 37.2993 86.1571 36.5134C86.2051 34.0414 86.1758 31.5693 86.1758 29.313C88.8823 30.264 91.5168 31.3456 94.2393 32.1021C96.8099 32.8187 99.4764 32.8773 102.076 32.0302C103.808 31.4654 104.631 30.4665 104.722 28.9401C104.812 27.3897 104.183 26.2816 102.399 25.6316C99.1887 24.4622 95.8989 23.5058 92.6703 22.3843C89.1487 21.159 86.4901 19.0279 85.651 15.1706C84.3377 9.13166 87.2094 3.80395 93.1045 1.4491C98.9437 -0.884438 104.676 -0.234457 110.294 2.26424C110.593 2.39743 110.907 2.89291 110.912 3.22589C110.966 5.52746 110.942 7.8317 110.942 10.3331L110.95 10.3304Z" fill="white"/>
<path d="M52.3439 42.5124C61.8086 31.1857 71.1534 19.9975 80.5009 8.81198C81.8914 7.14707 83.3352 5.52212 84.6512 3.7986C85.0614 3.26583 85.4903 2.26422 85.2559 1.84866C84.9602 1.32388 83.9959 0.918973 83.3139 0.905654C78.9665 0.823074 74.6164 0.905654 70.2663 0.844385C68.5162 0.82041 67.1789 1.47572 66.0974 2.77302C59.2593 10.9724 52.4318 19.1797 45.591 27.3764C42.0428 31.6279 38.4919 35.8821 34.9116 40.1043C33.1055 42.2354 33.1215 42.3553 34.9276 44.529C40.5324 51.2765 46.0945 58.0614 51.6806 64.8249C56.5342 70.7013 61.3984 76.5672 66.2519 82.4436C67.3974 83.8315 68.8385 84.5055 70.6499 84.4948C74.7762 84.4682 78.9052 84.4868 83.0315 84.4868C83.2526 84.4868 83.5084 84.5481 83.6895 84.4602C84.2143 84.2071 84.9522 83.9993 85.144 83.5678C85.3304 83.1496 85.1093 82.3451 84.7844 81.9348C83.0262 79.7132 81.1668 77.5688 79.3634 75.3791C72.9462 67.5793 66.5423 59.7715 60.1304 51.9691C57.5464 48.8231 54.9518 45.6851 52.3386 42.5124H52.3439Z" fill="white"/>
<path d="M8.77654 84.3403C11.166 84.3403 13.5848 84.556 15.9343 84.2497C17.1064 84.0979 18.4224 83.2188 19.2162 82.2838C25.4256 74.9475 31.5339 67.5207 37.6527 60.1098C38.9154 58.5808 38.8435 57.9708 37.5488 56.4204C35.4471 53.9057 33.3879 51.3564 31.2808 48.847C30.0368 47.3659 29.0884 47.3739 27.8151 48.887C24.7357 52.5471 21.6856 56.2339 18.6221 59.9074C12.9481 66.7109 7.27146 73.5144 1.59745 80.3205C1.20053 80.7973 0.784966 81.2635 0.428009 81.7696C-0.344509 82.8645 -0.0674667 83.8768 1.22983 84.2151C2.19415 84.4655 3.23838 84.4548 4.24798 84.4815C5.75572 84.5214 7.26613 84.4921 8.77388 84.4921C8.77388 84.4442 8.77388 84.3935 8.77388 84.3456L8.77654 84.3403Z" fill="white"/>
<path d="M9.03233 0.86336C6.81334 0.86336 4.58903 0.791435 2.37536 0.908645C1.68276 0.945939 0.65984 1.33753 0.444065 1.84632C0.225628 2.36311 0.63586 3.37005 1.0754 3.91347C5.26831 9.06804 9.52249 14.1746 13.7687 19.2866C18.3532 24.8114 22.943 30.3309 27.5355 35.8504C28.91 37.5047 29.8877 37.55 31.2995 35.9224C33.3587 33.5435 35.3832 31.1328 37.3811 28.7007C38.7343 27.0517 38.721 26.0501 37.3278 24.3559C33.388 19.5636 29.4135 14.8007 25.463 10.019C23.601 7.76541 21.7283 5.51712 19.9169 3.22354C18.6515 1.62522 17.1544 0.716848 15.026 0.836721C13.0361 0.948603 11.0329 0.860696 9.035 0.860696L9.03233 0.86336Z" fill="white"/>
<path d="M115.995 25.019C115.734 21.3455 117.263 17.5735 120.055 14.3982C121.197 13.0955 122.844 12.054 124.466 11.3907C128.15 9.88559 132.069 9.75506 135.934 10.5436C140.934 11.5665 144.216 14.7338 145.849 19.4888C147.682 24.8272 147.333 30.0084 143.936 34.7047C141.914 37.5018 139.083 39.1374 135.713 39.8486C131.435 40.7517 127.21 40.488 123.321 38.5034C118.177 35.8768 115.907 31.4122 115.998 25.019H115.995ZM138.776 25.3493C138.643 24.3903 138.611 23.4047 138.355 22.4803C137.559 19.5873 135.665 17.7626 132.7 17.2139C130.145 16.7397 127.801 17.2645 126.144 19.4035C124.208 21.9076 123.907 24.8032 124.546 27.832C125.505 32.3765 129.098 34.1693 133.307 33.1624C136.898 32.3046 138.662 29.5262 138.774 25.3493H138.776Z" fill="white"/>
<path d="M169.855 39.6195V36.295C168.955 37.0223 168.217 37.6802 167.418 38.2503C161.398 42.5338 152.298 39.8406 150.553 32.2034C150.465 31.8198 150.393 31.4202 150.393 31.0259C150.383 24.6353 150.385 18.2474 150.388 11.8568C150.388 11.6011 150.415 11.3454 150.433 11.0337H158.635C158.635 11.5105 158.635 11.9794 158.635 12.4482C158.635 17.6401 158.697 22.8319 158.611 28.0238C158.561 31.247 161.179 33.9349 165.215 32.9732C168.185 32.2646 169.831 29.9657 169.837 26.881C169.845 21.6492 169.837 16.4173 169.837 11.079H178.127V39.6222H169.855V39.6195Z" fill="white"/>
<path d="M102.782 46.1511C107.215 46.1511 111.506 46.1511 115.8 46.1511C115.971 46.1511 116.141 46.1884 116.392 46.2204V52.2007H102.782V46.1484V46.1511Z" fill="white"/>
</svg>
